# xmcd
#
# Track frame offsets:
#	183
#	15395
#	28928
#	42050
#	56385
#	71415
#	85105
#	98643
#	112533
#	126048
#	140468
#	154235
#	167543
#	180870
#	194208
#	207795
#	221343
#	236155
#	250303
#	264125
#	278275
#	290973
#	305183
#	318410
#
# Disc length: 4419 seconds
#
# Revision: 1
# Processed by: cddbd v1.5.2PL0 Copyright (c) Steve Scherf et al.
# Submitted via: audiograbber 1.83.01
#
DISCID=47114118
DTITLE=Memphis Minnie - Complete Recorded Works Vol. 2 (1935 - 1936)
DYEAR=1935
DGENRE=Blues
TTITLE0=Biting Bug Blues
TTITLE1=Minnie's Lonesome Song
TTITLE2=You Ain't Done Nothing To Me
TTITLE3=Ain't Nobody Home But Me (Take 1)
TTITLE4=Ain't Nobody Home But Me (Take 2)
TTITLE5=New Orleans Stop Time (with Bumble Bee Slim)
TTITLE6=Ice Man
TTITLE7=Hoodoo Lady
TTITLE8=My Strange Man
TTITLE9=I'm A Gamblin' Woman
TTITLE10=I'm A Bad Luck Woman
TTITLE11=Caught Me Wrong Again
TTITLE12=Black Cat Blues (Take 1)
TTITLE13=Black Cat Blues (Take 2)
TTITLE14=Good Morning
TTITLE15=Man You Won't Give Me No Money
TTITLE16=If You See Me Rooster
TTITLE17=I Don't Want You No More
TTITLE18=Out In The Cold
TTITLE19=Dragging My Heart Around
TTITLE20=Moonshine
TTITLE21=It's Hard To Be Mistreated
TTITLE22=Haunted House (Take 1)
TTITLE23=Haunted House (Take 2)
EXTD=
EXTT0=
EXTT1=
EXTT2=
EXTT3=
EXTT4=
EXTT5=
EXTT6=
EXTT7=
EXTT8=
EXTT9=
EXTT10=
EXTT11=
EXTT12=
EXTT13=
EXTT14=
EXTT15=
EXTT16=
EXTT17=
EXTT18=
EXTT19=
EXTT20=
EXTT21=
EXTT22=
EXTT23=
PLAYORDER=
